<?xml version="1.0" standalone="no"?>
<!DOCTYPE svg PUBLIC "-//W3C//DTD SVG 20010904//EN"
 "http://www.w3.org/TR/2001/REC-SVG-20010904/DTD/svg10.dtd">
<svg version="1.0" xmlns="http://www.w3.org/2000/svg"
 width="100" height="100" viewBox="0 0 1000.000000 1125.000000"
 preserveAspectRatio="xMidYMid meet">

<g transform="translate(0.000000,1125.000000) scale(0.100000,-0.100000)"
fill="#ac2727" stroke="none">
<path d="M4640 11239 c-1837 -122 -3476 -1117 -4438 -2694 -98 -160 -190 -330
-182 -333 4 -2 220 52 480 118 260 67 474 119 477 117 2 -3 60 -220 129 -483
69 -263 126 -479 128 -481 1 -1 37 60 79 137 204 371 414 655 697 944 708 724
1617 1154 2634 1246 152 14 559 14 707 0 1025 -94 1929 -521 2639 -1246 283
-289 493 -573 697 -944 42 -77 78 -138 80 -136 2 2 60 218 128 481 69 263 127
480 129 482 2 3 217 -50 477 -117 259 -66 476 -119 480 -118 11 4 -179 332
-298 512 -517 784 -1208 1416 -2038 1864 -902 486 -1976 719 -3005 651z m730
-149 c1087 -80 2096 -461 2940 -1109 343 -264 687 -601 956 -937 158 -197 424
-587 411 -600 -3 -3 -173 38 -378 90 -205 53 -376 93 -380 89 -4 -5 -48 -167
-99 -362 -50 -194 -95 -362 -99 -373 -6 -16 -20 0 -76 88 -275 430 -643 825
-1050 1131 -904 679 -2040 975 -3170 827 -930 -122 -1806 -555 -2475 -1224
-239 -239 -423 -466 -594 -733 -38 -59 -70 -106 -72 -105 -1 2 -46 172 -100
378 -53 206 -98 376 -100 378 -1 2 -172 -40 -379 -93 -208 -53 -379 -94 -382
-92 -10 11 173 288 321 485 265 352 615 711 960 986 856 682 1904 1093 2996
1175 164 12 611 13 770 1z"/>
<path d="M3093 6463 c3 -2144 0 -2014 56 -2271 47 -216 146 -450 267 -634 90
-136 291 -339 424 -427 288 -191 606 -290 1004 -310 651 -34 1164 137 1541
514 276 276 434 612 506 1080 10 61 14 545 16 2053 l4 1972 -466 0 -465 0 0
-1857 c0 -1170 -4 -1899 -10 -1968 -45 -491 -214 -820 -495 -963 -235 -119
-612 -134 -874 -36 -365 137 -549 495 -581 1129 -5 106 -10 963 -10 1943 l0
1752 -460 0 -461 0 4 -1977z"/>
<path d="M1221 3734 c-5 -22 -62 -239 -125 -483 -64 -245 -118 -446 -120 -448
-2 -3 -216 50 -476 117 -259 67 -475 120 -480 118 -8 -3 36 -86 151 -280 577
-975 1437 -1755 2461 -2234 504 -235 1077 -403 1618 -473 297 -39 410 -46 760
-45 357 1 518 11 810 54 1577 232 2985 1131 3863 2466 120 182 309 508 298
512 -4 1 -221 -52 -480 -118 -260 -67 -475 -119 -477 -117 -3 3 -61 220 -130
483 -69 263 -126 479 -128 481 -1 1 -37 -61 -80 -138 -216 -393 -468 -725
-777 -1024 -697 -676 -1574 -1075 -2558 -1165 -148 -14 -555 -14 -707 0 -1204
109 -2271 703 -2994 1665 -125 167 -211 300 -323 500 -49 88 -90 162 -92 164
-2 1 -8 -14 -14 -35z m154 -489 c172 -264 340 -470 575 -705 963 -960 2296
-1405 3655 -1219 1236 169 2358 890 3039 1952 38 59 70 106 72 105 1 -2 46
-172 100 -378 53 -206 98 -376 100 -378 1 -2 172 40 379 93 207 53 379 94 382
91 7 -6 -133 -224 -238 -371 -297 -416 -690 -825 -1104 -1146 -769 -598 -1683
-976 -2655 -1098 -475 -60 -1028 -53 -1505 20 -948 144 -1838 537 -2595 1144
-332 267 -694 642 -953 989 -137 184 -314 453 -304 463 3 2 173 -39 378 -91
205 -53 376 -93 380 -88 4 4 46 158 94 342 105 405 107 413 115 403 4 -4 42
-62 85 -128z"/>
</g>
</svg>
